<?xml version="1.0" standalone="no"?>
<!DOCTYPE svg PUBLIC "-//W3C//DTD SVG 20010904//EN"
 "http://www.w3.org/TR/2001/REC-SVG-20010904/DTD/svg10.dtd">
<svg version="1.0" xmlns="http://www.w3.org/2000/svg"
 width="1141.000000pt" height="400.000000pt" viewBox="0 0 1141.000000 400.000000"
 preserveAspectRatio="xMidYMid meet">

<g transform="translate(0.000000,400.000000) scale(0.100000,-0.100000)"
fill="#000000" stroke="none">
<path d="M627 3083 c-8 -16 -31 -57 -52 -93 -51 -88 -72 -124 -94 -162 -10
-18 -44 -78 -76 -133 -119 -205 -308 -531 -333 -575 -14 -25 -35 -61 -47 -80
l-22 -35 22 -35 c12 -19 33 -55 47 -80 30 -52 278 -482 408 -705 64 -109 135
-234 147 -257 l14 -28 5064 0 5064 0 14 28 c12 24 42 76 107 187 10 17 51 89
92 160 79 137 304 526 389 670 13 22 27 43 32 46 5 4 -2 24 -15 45 -14 22 -36
59 -50 84 -27 48 -156 270 -301 520 -122 211 -133 229 -205 358 l-64 112
-5063 0 -5064 0 -14 -27z m6647 -407 c220 -58 355 -209 417 -466 28 -117 15
-384 -24 -495 -73 -207 -199 -330 -392 -381 -64 -18 -226 -18 -290 0 -129 34
-229 101 -301 201 -177 249 -178 690 -1 938 73 102 168 167 296 203 64 17 228
17 295 0z m1332 5 c16 -5 49 -15 74 -22 67 -20 152 -69 216 -123 l56 -49 -92
-89 c-51 -48 -95 -88 -98 -88 -3 0 -28 17 -56 39 -78 59 -132 81 -216 88 -95
7 -153 -8 -197 -52 -57 -57 -39 -133 39 -173 24 -12 105 -38 182 -57 76 -20
174 -49 217 -66 186 -72 273 -226 240 -427 -37 -228 -206 -342 -506 -342 -202
0 -344 51 -465 168 l-65 62 90 85 c50 46 92 85 95 85 3 0 28 -19 55 -41 96
-81 212 -116 342 -105 40 3 90 14 110 23 99 47 111 176 21 231 -42 26 -95 44
-244 81 -181 45 -249 75 -315 141 -71 70 -99 138 -99 244 0 77 9 114 43 184
40 82 154 164 273 196 56 16 257 20 300 7z m-6806 -25 c144 -32 221 -69 305
-147 56 -53 113 -144 140 -224 36 -105 47 -349 21 -455 -55 -225 -182 -369
-390 -444 -110 -40 -183 -48 -436 -44 l-235 3 -3 650 c-1 358 0 656 3 663 7
18 507 17 595 -2z m1725 -111 l0 -120 -330 -5 c-181 -3 -331 -7 -333 -8 -1 -1
-1 -53 0 -114 l3 -113 190 -5 190 -5 3 -122 3 -123 -193 -2 -193 -3 -3 -159
c-2 -121 1 -161 10 -168 7 -4 163 -8 346 -8 l332 0 0 -125 0 -125 -475 0 -475
0 0 665 0 665 463 -2 462 -3 0 -120z m615 -115 c108 -327 183 -561 211 -653
12 -42 27 -76 32 -74 6 2 16 28 24 57 14 58 78 263 144 465 21 66 43 134 48
150 48 157 86 272 94 283 7 8 48 12 142 12 72 0 134 -3 138 -6 3 -3 2 -14 -3
-23 -5 -9 -16 -36 -24 -61 -8 -25 -29 -83 -46 -130 -18 -47 -35 -96 -40 -110
-14 -43 -77 -221 -110 -310 -17 -47 -48 -134 -70 -195 -21 -60 -59 -168 -85
-240 -25 -71 -53 -150 -62 -175 -29 -85 -20 -80 -158 -80 -143 0 -126 -13
-174 130 -18 52 -36 104 -41 115 -5 11 -16 40 -24 65 -8 25 -21 63 -29 85 -9
22 -41 112 -72 200 -31 88 -65 183 -75 210 -21 58 -63 175 -115 325 -19 58
-40 112 -44 120 -5 9 -12 30 -16 48 l-7 33 143 -3 142 -3 77 -235z m1854 229
c161 -43 258 -127 305 -264 17 -49 18 -254 1 -298 -40 -103 -90 -169 -164
-212 -93 -54 -156 -65 -381 -72 -135 -4 -213 -10 -218 -17 -4 -6 -7 -110 -6
-231 l1 -220 -128 0 -129 0 -3 650 c-1 358 0 656 3 663 6 16 657 17 719 1z
m4214 -116 l3 -123 -180 0 c-99 0 -186 -3 -195 -6 -14 -5 -16 -62 -16 -540 l0
-534 -130 0 -130 0 0 529 c0 441 -2 530 -14 540 -10 8 -70 11 -193 11 l-178
-2 -3 126 -3 126 518 -2 518 -3 3 -122z"/>
<path d="M7075 2430 c-81 -14 -134 -50 -184 -124 -51 -75 -66 -145 -66 -301 0
-111 4 -153 19 -200 33 -101 95 -177 175 -211 56 -25 175 -22 233 6 122 57
188 200 188 405 0 253 -101 409 -275 427 -27 3 -68 2 -90 -2z"/>
<path d="M1465 2409 c-3 -8 -4 -194 -3 -414 l3 -400 130 1 c167 2 224 21 305
103 66 67 90 113 109 209 32 157 -18 347 -111 427 -69 58 -133 77 -290 83
-112 4 -139 2 -143 -9z"/>
<path d="M5536 2405 c-10 -28 -7 -305 4 -326 10 -17 23 -19 165 -19 177 0 243
11 287 48 85 72 75 225 -19 283 -36 23 -49 24 -234 27 -176 3 -197 2 -203 -13z"/>
</g>
</svg>
